<?xml version="1.0" encoding="utf-8"?>
<!-- Generator: Adobe Illustrator 21.0.0, SVG Export Plug-In . SVG Version: 6.00 Build 0)  -->
<svg version="1.1" id="Слой_1" xmlns="http://www.w3.org/2000/svg" xmlns:xlink="http://www.w3.org/1999/xlink" x="0px" y="0px"
	 viewBox="0 0 90.2 92.7" style="enable-background:new 0 0 90.2 92.7;" xml:space="preserve">
<style type="text/css">
	.st0{fill:#FFFFFF;}
</style>
<g>
	<g>
		<path class="st0" d="M74.2,55.4c-0.5,0-1,0-1.6-0.1c-5.7-0.9-9.5-6.2-8.7-11.8c0.3-1.9-2-2.8-2.2-2.8c-5.4-2-8.1-7.9-6.2-13.3
			c1.5-4.1,5.4-6.8,9.8-6.8c1.2,0,2.4,0.2,3.6,0.6c6.4,2.3,17.8,10.7,15.5,25.4C83.6,51.8,79.3,55.4,74.2,55.4z M65.4,23.5
			c-3.1,0-5.9,2-7,4.9c-1.4,3.8,0.6,8.1,4.4,9.5c1.6,0.6,4.6,2.6,4,6c-0.6,4,2.2,7.8,6.2,8.5c4.1,0.6,7.9-2.2,8.5-6.2
			c2-12.9-8-20.2-13.6-22.2C67.1,23.7,66.2,23.5,65.4,23.5z"/>
	</g>
</g>
<g>
	<path class="st0" d="M65.8,37.1c-3.3,0-5.9-2.7-5.9-6s2.7-6,5.9-6s6,2.7,6,6S69.1,37.1,65.8,37.1z M65.8,28.1c-1.7,0-3,1.4-3,3
		c0,1.7,1.3,3,3,3s3-1.4,3-3C68.8,29.4,67.5,28.1,65.8,28.1z"/>
</g>
<g>
	<g>
		<path class="st0" d="M46.2,87.8c-2.4,0-4.8-0.5-7-1.6C5.9,70.3,4.8,35.1,8.9,18.8c1.8-7.3,8.3-12.3,15.8-12.3c1.3,0,2.7,0.2,4,0.5
			c8.6,2.2,14,11,11.9,19.6c-0.5,2.2-4.6,22,12.7,30.2c3.9,1.9,6.9,5.2,8.4,9.3c1.5,4.1,1.2,8.5-0.6,12.5
			C58.2,84.1,52.5,87.8,46.2,87.8z M24.7,9.3c-6.1,0-11.4,4.2-12.9,10.1c-3.9,15.6-2.9,49,28.7,64c1.8,0.9,3.7,1.3,5.7,1.3
			c5.1,0,9.9-3,12.1-7.6C59.8,74,60,70.4,58.8,67c-1.2-3.4-3.6-6.1-6.8-7.6c-19.3-9.2-14.8-31.1-14.3-33.5
			c1.7-7.1-2.6-14.3-9.7-16.1C26.9,9.5,25.8,9.3,24.7,9.3z"/>
	</g>
</g>
<g>
	<path class="st0" d="M24.3,30.5c-4,0-7.2-3.3-7.2-7.2s3.3-7.2,7.2-7.2s7.3,3.3,7.3,7.2C31.6,27.3,28.3,30.5,24.3,30.5z M24.3,19
		c-2.4,0-4.3,1.9-4.3,4.3s1.9,4.3,4.3,4.3c2.4,0,4.3-1.9,4.3-4.3S26.7,19,24.3,19z"/>
</g>
<g>
	<path class="st0" d="M46,79.5c-4,0-7.2-3.3-7.2-7.2c0-4,3.3-7.2,7.2-7.2s7.2,3.3,7.2,7.2C53.2,76.2,50,79.5,46,79.5z M46,67.9
		c-2.4,0-4.3,1.9-4.3,4.3c0,2.4,1.9,4.3,4.3,4.3c2.4,0,4.3-1.9,4.3-4.3S48.4,67.9,46,67.9z"/>
</g>
<g>
	<path class="st0" d="M30.1,68.2c-2.4,0-4.4-2-4.4-4.4s2-4.4,4.4-4.4s4.4,2,4.4,4.4S32.5,68.2,30.1,68.2z M30.1,62.4
		c-0.8,0-1.4,0.6-1.4,1.4c0,0.8,0.6,1.4,1.4,1.4c0.8,0,1.4-0.6,1.4-1.4C31.5,63,30.9,62.4,30.1,62.4z"/>
</g>
<g>
	<path class="st0" d="M32,55c-2.1,0-3.8-1.7-3.8-3.8s1.7-3.8,3.8-3.8c2.1,0,3.8,1.7,3.8,3.8S34.1,55,32,55z M32,50.3
		c-0.5,0-0.9,0.4-0.9,0.9S31.5,52,32,52c0.5,0,0.9-0.4,0.9-0.9S32.5,50.3,32,50.3z"/>
</g>
<g>
	<path class="st0" d="M21.2,45.1c-3.3,0-5.9-2.7-5.9-6s2.7-6,5.9-6c3.3,0,6,2.7,6,6S24.5,45.1,21.2,45.1z M21.2,36.2
		c-1.7,0-3,1.4-3,3c0,1.7,1.3,3,3,3s3-1.4,3-3C24.2,37.5,22.9,36.2,21.2,36.2z"/>
</g>
<g>
	<rect x="24.5" y="2.7" transform="matrix(0.3163 -0.9487 0.9487 0.3163 15.4833 29.8277)" class="st0" width="7.8" height="2.9"/>
</g>
<g>
	<rect x="11" y="3.5" transform="matrix(0.7977 -0.6031 0.6031 0.7977 -2.2414 9.1243)" class="st0" width="2.9" height="8.8"/>
</g>
<g>
	<rect x="3.9" y="18.2" transform="matrix(0.2125 -0.9772 0.9772 0.2125 -17.6594 22.8931)" class="st0" width="2.9" height="8.4"/>
</g>
<g>
	<rect x="0.2" y="36.6" transform="matrix(0.98 -0.1991 0.1991 0.98 -7.481 1.6544)" class="st0" width="8.6" height="2.9"/>
</g>
<g>
	<rect x="3.1" y="51.5" transform="matrix(0.904 -0.4276 0.4276 0.904 -21.9569 8.209)" class="st0" width="8.5" height="2.9"/>
</g>
<g>
	<rect x="9.7" y="63.9" transform="matrix(0.9525 -0.3044 0.3044 0.9525 -19.2611 7.1468)" class="st0" width="7.2" height="2.9"/>
</g>
<g>
	<polygon class="st0" points="20.9,82 18.8,79.9 24.7,74.3 26.7,76.4 	"/>
</g>
<g>
	
		<rect x="29.5" y="85.1" transform="matrix(0.4356 -0.9001 0.9001 0.4356 -58.8361 79.3778)" class="st0" width="8.7" height="2.9"/>
</g>
<g>
	<polygon class="st0" points="50.4,92.7 48.3,86.3 51.1,85.4 53.2,91.8 	"/>
</g>
<g>
	<rect x="61.1" y="76.7" transform="matrix(0.4742 -0.8804 0.8804 0.4742 -38.2227 97.559)" class="st0" width="2.9" height="8.1"/>
</g>
<g>
	<rect x="60" y="63.7" transform="matrix(0.9518 -0.3068 0.3068 0.9518 -16.8863 22.8509)" class="st0" width="8.6" height="2.9"/>
</g>
<g>
	<rect x="49.5" y="52.7" transform="matrix(0.6862 -0.7274 0.7274 0.6862 -22.5876 55.935)" class="st0" width="8.1" height="2.9"/>
</g>
<g>
	<polygon class="st0" points="40.8,43.4 39.6,40.7 46.5,37.8 47.6,40.5 	"/>
</g>
<g>
	<rect x="41.6" y="22.7" transform="matrix(0.1327 -0.9912 0.9912 0.1327 10.867 65.8825)" class="st0" width="2.9" height="8"/>
</g>
<g>
	<rect x="35.8" y="9.8" transform="matrix(0.7507 -0.6607 0.6607 0.7507 2.7645 29.7702)" class="st0" width="10" height="2.9"/>
</g>
<g>
	<rect x="53.3" y="39.4" transform="matrix(0.9412 -0.3378 0.3378 0.9412 -10.4 21.967)" class="st0" width="9.3" height="2.9"/>
</g>
<g>
	
		<rect x="63.4" y="52.4" transform="matrix(0.7033 -0.7109 0.7109 0.7033 -18.6137 63.1008)" class="st0" width="5.8" height="2.9"/>
</g>
<g>
	<rect x="62.8" y="15.1" class="st0" width="2.9" height="7.1"/>
</g>
<g>
	<rect x="76.3" y="25" transform="matrix(0.8436 -0.5369 0.5369 0.8436 -1.8539 46.5502)" class="st0" width="5.5" height="2.9"/>
</g>
<g>
	<rect x="83.1" y="35.5" transform="matrix(0.9536 -0.3011 0.3011 0.9536 -7.1252 27.7611)" class="st0" width="6.8" height="2.9"/>
</g>
<g>
	
		<rect x="81.8" y="50.3" transform="matrix(0.6702 -0.7422 0.7422 0.6702 -13.1514 79.8354)" class="st0" width="2.9" height="8.7"/>
</g>
</svg>
