<?xml version="1.0" encoding="utf-8"?>
<!-- Generator: Adobe Illustrator 21.0.0, SVG Export Plug-In . SVG Version: 6.00 Build 0)  -->
<svg version="1.1" id="Слой_1" xmlns="http://www.w3.org/2000/svg" xmlns:xlink="http://www.w3.org/1999/xlink" x="0px" y="0px"
	 viewBox="0 0 276.5 276.5" style="enable-background:new 0 0 276.5 276.5;" xml:space="preserve">
<style type="text/css">
	.st0{fill:#FFFFFF;}
</style>
<g>
	<path class="st0" d="M6.8,6.8c9-9,24-9,33,0l98,98l99-98c9-9,24-9,33,0s9,24,0,33l-99,98l99,99c9,9,9,24,0,33s-24,9-33,0l-99-99
		l-98,99c-9,9-24,9-33,0s-9-24,0-33l98-99l-98-98C-2.2,30.8-2.2,15.8,6.8,6.8z"/>
</g>
</svg>
