<?xml version="1.0" encoding="utf-8"?>
<!-- Generator: Adobe Illustrator 21.0.0, SVG Export Plug-In . SVG Version: 6.00 Build 0)  -->
<svg version="1.1" id="Слой_1" xmlns="http://www.w3.org/2000/svg" xmlns:xlink="http://www.w3.org/1999/xlink" x="0px" y="0px"
	 viewBox="0 0 28 32" style="enable-background:new 0 0 28 32;" xml:space="preserve">
<style type="text/css">
	.st0{fill:#0090D9;}
</style>
<g>
	<g>
		<g>
			<path class="st0" d="M23,15H1c-0.6,0-1,0.4-1,1v10c0,0.5,0.4,1,1,1h22c0.6,0,1-0.5,1-1V16C24,15.4,23.6,15,23,15z M5.7,24H3.8
				c-0.3,0-0.6-0.1-0.6-0.5V19c0-0.3,0.3-0.5,0.6-0.5h1.8C9.3,18.5,9.2,24,5.7,24z M12.2,24.1c-1.5,0.1-3-0.9-3-2.9
				c0-2,1.5-2.9,3-2.9c1.4,0.1,2.9,1,2.9,2.9C15.1,23.1,13.6,24.1,12.2,24.1z M20.8,23.4c-0.6,0.5-1.2,0.6-1.9,0.6
				c-1.9,0-2.8-1.3-2.8-2.9s1-2.9,2.8-2.9c0.7,0,1.2,0.2,1.8,0.7c0.2,0.2,0.2,0.6,0,0.8c-0.2,0.2-0.5,0.2-0.7,0
				c-0.3-0.3-0.7-0.4-1.1-0.4c-1.2,0-1.8,0.9-1.8,1.8c0,1,0.6,1.9,1.8,1.9c0.5,0,0.9-0.2,1.2-0.5c0.2-0.2,0.6-0.1,0.7,0.1
				C21,22.9,21,23.2,20.8,23.4z"/>
			<path class="st0" d="M12.2,19.3c-0.9,0-1.9,0.6-1.9,1.9c0,1.3,1,1.9,1.9,1.9c0.9,0,1.9-0.6,1.9-1.9
				C14.1,19.9,13.1,19.3,12.2,19.3z"/>
			<path class="st0" d="M5.6,19.4H4.3V23h1.3C7.8,23,7.9,19.4,5.6,19.4z"/>
		</g>
		<path class="st0" d="M27,7.6L20.4,1c-0.6-0.6-1.6-1-2.4-1H7C5.3,0,4,1.3,4,3v10c0,0.6,0.4,1,1,1s1-0.4,1-1V3c0-0.6,0.4-1,1-1h9
			c1.1,0,2,0.9,2,2v3.8C18,9,19,10,20.2,10H24c1.1,0,2,0.9,2,2v17c0,0.6-0.4,1-1,1H7c-0.6,0-1-0.4-1-1c0-0.6-0.4-1-1-1s-1,0.4-1,1
			c0,1.7,1.3,3,3,3h18c1.7,0,3-1.3,3-3V10C28,9.2,27.6,8.2,27,7.6z"/>
	</g>
</g>
</svg>
