<?xml version="1.0" encoding="utf-8"?>
<!-- Generator: Adobe Illustrator 21.0.0, SVG Export Plug-In . SVG Version: 6.00 Build 0)  -->
<svg version="1.1" id="Слой_1" xmlns="http://www.w3.org/2000/svg" xmlns:xlink="http://www.w3.org/1999/xlink" x="0px" y="0px"
	 viewBox="0 0 56 88.2" style="enable-background:new 0 0 56 88.2;" xml:space="preserve">
<style type="text/css">
	.st0{fill:#FFFFFF;}
</style>
<g>
	<path class="st0" d="M9.7,86.5c0.2,1,1.1,1.7,2,1.7h32.7c1,0,1.8-0.7,2-1.7L56,41.9c0.2-1.1-0.5-2.2-1.6-2.5
		c-1.1-0.2-2.2,0.5-2.5,1.6l-9.2,42.9H13.4L4.2,41c-0.2-1.1-1.4-1.8-2.5-1.6s-1.9,1.4-1.6,2.5L9.7,86.5z"/>
	<path class="st0" d="M16.5,52.2c2.2,0,4.3-0.9,5.8-2.4c1.5,1.5,3.6,2.4,5.8,2.4s4.3-0.9,5.8-2.4c1.5,1.5,3.6,2.4,5.8,2.4
		c3.4,0,6.5-2.1,7.8-5.2c0.4-1.1-0.1-2.3-1.2-2.7c-1.1-0.4-2.3,0.1-2.7,1.2c-0.6,1.6-2.2,2.6-3.9,2.6s-3.2-1-3.9-2.6l0,0
		c-0.2-0.5-0.6-1-1.2-1.2c-1.1-0.4-2.3,0.1-2.7,1.2c-0.6,1.6-2.2,2.6-3.9,2.6s-3.2-1-3.9-2.6c-0.2-0.5-0.6-1-1.2-1.2
		c-1.1-0.4-2.3,0.1-2.7,1.2c-0.6,1.6-2.2,2.6-3.9,2.6s-3.2-1-3.9-2.6c-0.4-1.1-1.7-1.6-2.7-1.2C8.6,44.7,8.1,46,8.5,47
		C10,50.2,13,52.2,16.5,52.2z"/>
	<path class="st0" d="M28.1,36.9c7.9,0,14.3-6.4,14.3-14.3c0-7.3-11.5-20.4-12.8-21.9C29.2,0.3,28.6,0,28,0s-1.2,0.3-1.6,0.7
		c-1.3,1.5-12.8,14.6-12.8,21.9C13.7,30.4,20.2,36.9,28.1,36.9z M28.1,5.2c4.4,5.3,10.1,13.4,10.1,17.3c0,5.6-4.5,10.1-10.1,10.1
		S18,28.1,18,22.5C17.9,18.7,23.6,10.6,28.1,5.2z"/>
	<path class="st0" d="M28,28.9c1.7,0,3.3-0.5,4.7-1.5c0.9-0.7,1.2-2,0.5-2.9s-2-1.2-2.9-0.5c-1.3,0.9-3.1,0.9-4.4,0.1
		c-1-0.6-2.3-0.4-2.9,0.6c-0.6,1-0.4,2.3,0.6,2.9C24.9,28.5,26.4,28.9,28,28.9z"/>
</g>
</svg>
