<?xml version="1.0" encoding="utf-8"?>
<!-- Generator: Adobe Illustrator 21.0.0, SVG Export Plug-In . SVG Version: 6.00 Build 0)  -->
<svg version="1.1" id="Слой_1" xmlns="http://www.w3.org/2000/svg" xmlns:xlink="http://www.w3.org/1999/xlink" x="0px" y="0px"
	 viewBox="0 0 68.5 68.4" style="enable-background:new 0 0 68.5 68.4;" xml:space="preserve">
<style type="text/css">
	.st0{fill:#FFFFFF;}
</style>
<g>
	<path class="st0" d="M68.5,34.2C68.5,15.3,53.1,0,34.3,0c-3.3,0-6.4,0.5-9.4,1.3H1.6v3.1h15.8C7,10.3,0,21.4,0,34.2
		c0,18.9,15.4,34.2,34.2,34.2c1.8,0,3.5-0.1,5.2-0.4h27.5v-3.1H49.4C60.7,59.4,68.5,47.7,68.5,34.2z M3.1,34.2
		c0-13.9,9.2-25.7,21.8-29.7v25.7l-4.3-4.3l-2.2,2.3l7.7,7.7l7.6-7.6l-2.2-2.2L28,29.6V3.8c2-0.4,4.1-0.6,6.3-0.6
		c17.1-0.1,31.1,13.9,31.1,31c0,14.7-10.3,27.1-24,30.3V39.1l4.3,4.3l2.2-2.2l-7.7-7.7l-7.6,7.6l2.2,2.2l3.5-3.5v25.3
		c-1.3,0.2-2.6,0.3-4,0.3C17.1,65.4,3.1,51.4,3.1,34.2z M26,31.4h0.2l-0.1,0.1L26,31.4z M40.3,38h-0.2l0.1-0.1L40.3,38z"/>
	<path class="st0" d="M21.4,37.9c-5.4,0-9.8,4.4-9.8,9.8s4.4,9.8,9.8,9.8s9.8-4.4,9.8-9.8S26.8,37.9,21.4,37.9z M21.4,54.4
		c-3.7,0-6.7-3-6.7-6.7c0-3.7,3-6.7,6.7-6.7s6.7,3,6.7,6.7C28.1,51.4,25.1,54.4,21.4,54.4z"/>
	<rect x="16.8" y="46.1" class="st0" width="9.2" height="3.1"/>
	<path class="st0" d="M46.8,30.5c5.4,0,9.8-4.4,9.8-9.8s-4.4-9.8-9.8-9.8S37,15.3,37,20.7C37,26.1,41.4,30.5,46.8,30.5z M46.8,14.1
		c3.7,0,6.7,3,6.7,6.7s-3,6.7-6.7,6.7c-3.7,0-6.7-3-6.7-6.7C40.1,17,43.1,14.1,46.8,14.1z"/>
	<polygon class="st0" points="45.2,25.3 48.3,25.3 48.3,22.3 51.4,22.3 51.4,19.2 48.3,19.2 48.3,16.1 45.2,16.1 45.2,19.2 
		42.1,19.2 42.1,22.3 45.2,22.3 	"/>
</g>
</svg>
