<?xml version="1.0" encoding="utf-8"?>
<!-- Generator: Adobe Illustrator 21.0.0, SVG Export Plug-In . SVG Version: 6.00 Build 0)  -->
<svg version="1.1" id="Слой_1" xmlns="http://www.w3.org/2000/svg" xmlns:xlink="http://www.w3.org/1999/xlink" x="0px" y="0px"
	 viewBox="0 0 24 23" style="enable-background:new 0 0 24 23;" xml:space="preserve">
<style type="text/css">
	.st0{fill:#FFFFFF;}
</style>
<g>
	<g>
		<path class="st0" d="M5,19.5c-0.1,0-0.2,0-0.2-0.1C4.7,19.4,2,17.9,2,12.5C2,6.8,10.7,4,15.5,4c5.2,0,8.3,4,8.4,4.2
			c0.1,0.2,0.1,0.5,0,0.7l-0.6,0.6l0.6,0.6c0.1,0.1,0.1,0.2,0.1,0.4c0,0.1-0.1,0.3-0.1,0.4C23.7,11,20.6,14,17.5,14h-2
			c-0.3,0-0.5-0.2-0.5-0.5s0.2-0.5,0.5-0.5h2c2.1,0,4.4-1.8,5.3-2.5l-0.6-0.6c-0.2-0.2-0.2-0.5,0-0.7l0.7-0.7C22,7.5,19.4,5,15.5,5
			C10.4,5,3,7.9,3,12.5c0,4.8,2.2,6,2.2,6.1c0.2,0.1,0.3,0.4,0.2,0.7C5.3,19.4,5.2,19.5,5,19.5z"/>
	</g>
	<g>
		<path class="st0" d="M13.5,16c-0.2,0-0.4-0.1-0.5-0.3s0-0.4,0.1-0.5c0,0,0.1-0.1,0.1-0.2c0-1-1.9-3-3-4.1c-0.2-0.2-0.2-0.5,0-0.7
			c0.2-0.2,0.5-0.2,0.7,0c0.3,0.3,3,2.8,3.3,4.5c0.7-1,0.8-3.2,0.8-4.1c0-0.3,0.2-0.5,0.5-0.5c0.3,0,0.5,0.2,0.5,0.5
			c0,0.4,0,3.7-1.2,5C14.4,15.8,14,16,13.5,16z"/>
	</g>
	<g>
		<path class="st0" d="M17.5,12c-0.1,0-0.2,0-0.2-0.1c-0.1,0-1.3-0.7-1.3-2.9s1.2-2.9,1.3-2.9c0.2-0.1,0.5-0.1,0.7,0.2
			c0.1,0.2,0.1,0.5-0.2,0.7C17.7,7,17,7.4,17,9c0,1.6,0.7,2.1,0.8,2.1c0.2,0.1,0.3,0.4,0.2,0.7C17.8,11.9,17.7,12,17.5,12z"/>
	</g>
	<g>
		<path class="st0" d="M9.5,23c-0.1,0-0.2,0-0.3-0.1c-0.8-0.5-1.8-0.8-2.7-1c-1.2-0.3-2.4-0.6-3.4-1.6C1.4,18.6,0,16.9,0,13.5
			c0-3.3,2.1-6.3,3.1-7.4C3.3,6,3.7,6,3.9,6.1s0.2,0.5,0,0.7c-1,1-2.9,3.6-2.9,6.6c0,3,1.2,4.5,2.9,6.1c0.8,0.8,1.8,1,2.9,1.3
			c0.6,0.1,1.2,0.3,1.8,0.5c-0.2-0.9-0.3-2,0.6-2.8c0.6-0.6,0.8-2,0.9-3C8.8,16.7,7.2,18,6.5,18C5.4,18,4,16.5,4,15
			c0-1.4,1.4-4,3.5-4c1.1,0,2.5,0.6,3.7,1c0.5,0.2,1.2,0.5,1.3,0.5c0.3,0,0.5,0.2,0.5,0.5c0,0.3-0.2,0.5-0.5,0.5
			c-0.3,0-0.8-0.2-1.7-0.5c-1-0.4-2.4-1-3.3-1C6.1,12,5,14,5,15c0,1,1,2,1.5,2c0.4-0.1,2.2-1.5,3.7-2.9c0.1-0.1,0.3-0.2,0.5-0.1
			s0.3,0.2,0.3,0.4c0,0.1,0.3,3.5-1.1,4.9c-1,1,0.1,2.9,0.1,2.9c0.1,0.2,0.1,0.5-0.1,0.6C9.7,23,9.6,23,9.5,23z"/>
	</g>
	<g>
		<path class="st0" d="M5.5,8C5.4,8,5.3,8,5.2,7.9C4.3,7.4,1.7,6,0.5,6C0.3,6,0.1,5.9,0,5.7s0-0.4,0.1-0.5C2.6,2.7,8.6,0,11.5,0
			c3.6,0.1,5.4,4.1,5.5,4.3c0.1,0.3,0,0.5-0.3,0.7c-0.3,0.1-0.5,0-0.7-0.3c0,0-1.6-3.6-4.5-3.7C9.3,1,4.3,3,1.6,5.2
			c1.7,0.5,3.9,1.7,4.1,1.9C6,7.2,6.1,7.5,5.9,7.8C5.8,7.9,5.7,8,5.5,8z"/>
	</g>
	<g>
		<path class="st0" d="M8.5,6C8.4,6,8.2,6,8.1,5.9C7.6,5.3,4.9,4.4,3.4,4C3.1,3.9,2.9,3.6,3,3.4C3.1,3.1,3.4,2.9,3.6,3
			c0.4,0.1,4.3,1.2,5.2,2.1C9,5.3,9,5.7,8.9,5.9C8.8,6,8.6,6,8.5,6z"/>
	</g>
	<g>
		<path class="st0" d="M13.5,5c-0.2,0-0.4-0.1-0.5-0.3C12.3,3,8.7,2.2,7.4,2C7.2,2,7,1.7,7,1.4C7,1.2,7.3,1,7.6,1
			c0.2,0,5.2,0.8,6.4,3.3c0.1,0.3,0,0.5-0.2,0.7C13.6,5,13.6,5,13.5,5z"/>
	</g>
	<g>
		<circle class="st0" cx="20" cy="9" r="1"/>
	</g>
</g>
</svg>
