<?xml version="1.0" encoding="utf-8"?>
<!-- Generator: Adobe Illustrator 21.0.0, SVG Export Plug-In . SVG Version: 6.00 Build 0)  -->
<svg version="1.1" id="Layer_1" xmlns="http://www.w3.org/2000/svg" xmlns:xlink="http://www.w3.org/1999/xlink" x="0px" y="0px"
	 viewBox="0 0 154.8 44.3" style="enable-background:new 0 0 154.8 44.3;" xml:space="preserve">
<style type="text/css">
	.st0{fill:#41A6E4;}
	.st1{fill:#1F385E;}
</style>
<path class="st0" d="M44.2,0c5,3.8,8.7,9.2,10.3,15.4h45.9C102,9.2,105.7,3.8,110.7,0H44.2z M75.1,12.1h-7l3-3.4
	c0.3-0.3,1-1.2,1.3-1.6c0.3-0.4,0.4-0.8,0.4-1.1c0-0.5-0.4-0.9-0.9-0.9c-0.7,0-1,0.5-1,1.1l0,0.3h-2.3l0-0.3
	c0.1-1.8,1.4-3.1,3.2-3.1c2.1,0,3.2,1.5,3.2,2.9c0,1.4-0.9,2.4-1.6,3.1l-0.9,1h2.6V12.1z M86.8,12.1h-2.3V8.5h-2.8v3.7h-2.3V3.3h2.3
	v3.2h2.8V3.3h2.3V12.1z"/>
<path class="st0" d="M39.4,30.9c1-1.4,1.8-3,1.8-4.6c0-3.4-2.4-6.2-7.2-6.2c-6.1,0-8.9,3.5-14.6,3.5c-7.7,0-8.4-3.5-14.7-3.5
	c-2.1,0-3.5,0.4-4.7,0.8v5.7c0.9-0.3,2.7-0.9,4.1-0.9c6.8,0,8.4,3.5,15.6,3.5c7.2,0,8.2-3.6,14.5-3.6C37.4,25.7,39.3,27.9,39.4,30.9
	z"/>
<path class="st1" d="M151.2,12.4c-1.6,0-2.9,0.1-4,0.2C143.6,5.2,136,0,127.2,0c-12.2,0-22.1,9.9-22.1,22.1c0,4.8,1.5,9.3,4.1,12.9
	l-4.4,4.7h-2.2c0.2-0.7,0.4-1.4,0.4-2.2c0-3.5-2.1-5.3-5-6.1c2.1-0.9,3.9-2.5,3.9-5.6c0-3.7-3.2-6.1-8-6.1H81.3v19.9h-5.7l-7-9.7
	l9.5-10.2h-6.6L60.9,31.5V19.9h-5.5v19.9h-5.6V22.1h0C49.7,9.9,39.8,0,27.6,0c-8.8,0-16.4,5.2-20,12.6c-1.2-0.1-2.5-0.2-4-0.2
	c-1,0-2.7,0.3-3.6,0.5v5.8C1.2,18.3,2.7,18,4.7,18c6.1,0,7.6,3.5,13.7,3.5c6.2,0,8.4-3.6,15.5-3.6c6.1,0,9.2,3.7,9.2,7.6
	c0,2.1-0.5,3.9-1.4,5.4c-2.9,4.7-8.2,7.9-14.1,7.9c-7.3,0-13.4-4.7-15.7-11.2c-1.8-0.7-3.6-1.5-6.1-1.8
	c1.8,10.5,10.9,18.4,21.8,18.4c6.6,0,12.6-2.9,16.7-7.6v7.5h16.6v-5.9l4-4.2l7.4,10.1h34.6l5.4-5.8c4,3.7,9.2,5.9,15,5.9
	c6.6,0,12.6-2.9,16.7-7.6v7.5h5.5V25.8c-0.1,0-0.2,0-0.3,0c0,0,0,0,0,0c-0.1,0-0.2,0-0.3,0c-0.1,0-0.3,0-0.4,0c-0.2,0-0.3,0-0.5,0.1
	c-0.1,0-0.2,0-0.4,0.1c-0.1,0-0.3,0.1-0.4,0.1c-0.1,0-0.2,0.1-0.3,0.1c-0.1,0-0.3,0.1-0.4,0.1c-0.1,0-0.2,0.1-0.3,0.1
	c-0.2,0.1-0.5,0.1-0.7,0.2c-0.1,0-0.2,0.1-0.3,0.1c-0.1,0-0.2,0.1-0.4,0.1c-0.1,0-0.2,0.1-0.3,0.1c-0.1,0.1-0.3,0.1-0.4,0.2
	c0,0-0.1,0-0.1,0.1l0,0c-0.3,0.1-0.6,0.3-0.9,0.4c-2.3,6.5-8.4,11.2-15.7,11.2c-4.6,0-8.7-1.8-11.7-4.8c0,0-0.1-0.1-0.1-0.1
	c0,0-0.1-0.1-0.1-0.1c-1.4-1.5-3.5-4.6-3.5-8.2c0-3.9,2.7-7.6,8.8-7.6c7,0,9.7,3.6,15.8,3.6c6.2,0,7.7-3.5,13.7-3.5
	c2,0,3.5,0.3,4.7,0.7v-5.8C153.9,12.7,152.2,12.4,151.2,12.4z M34.8,12.4c-7.9,0-11.5,3.6-16,3.6c-2.3,0-3.6-1-5.7-1.9
	c2.9-5.1,8.3-8.5,14.5-8.5c6.8,0,12.6,4.1,15.2,9.9C40.4,13.5,37.4,12.4,34.8,12.4z M86.8,24.2h5.8c2.5,0,3.5,1.2,3.5,2.8
	c0,1.8-1.3,3-3.6,3h-5.7V24.2z M93.7,39.8h-6.8v-6.1h6c3,0,4.4,1.2,4.4,3C97.3,38.4,96,39.6,93.7,39.8z M136,16
	c-4.4,0-8.1-3.6-16-3.6c-2.6,0-5.7,1.1-8.1,3.1c2.6-5.9,8.4-10,15.2-10c6.2,0,11.7,3.4,14.5,8.5C139.6,15,138.3,16,136,16z"/>
<path class="st0" d="M135.4,23.6c-5.7,0-8.4-3.5-14.6-3.5c-4.8,0-7.2,2.8-7.2,6.2c0,1.7,0.8,3.3,1.8,4.6c0.2-3.1,2-5.2,5.3-5.2
	c6.3,0,7.4,3.6,14.5,3.6c7.2,0,8.8-3.5,15.6-3.5c1.3,0,3.1,0.6,4,0.9V21c-1.2-0.5-2.6-0.8-4.7-0.8C143.8,20.1,143.1,23.6,135.4,23.6
	z"/>
</svg>
