<?xml version="1.0" encoding="utf-8"?>
<!-- Generator: Adobe Illustrator 21.0.0, SVG Export Plug-In . SVG Version: 6.00 Build 0)  -->
<svg version="1.1" id="Слой_1" xmlns="http://www.w3.org/2000/svg" xmlns:xlink="http://www.w3.org/1999/xlink" x="0px" y="0px"
	 viewBox="0 0 100 99.9" style="enable-background:new 0 0 100 99.9;" xml:space="preserve">
<style type="text/css">
	.st0{fill:#FFFFFF;}
</style>
<path class="st0" d="M50,99.9c-27.4,0-49.8-22.2-50-49.6C0,50.2,0,50.1,0,50s0-0.2,0.1-0.3C0.3,22.2,22.6,0,50,0
	c27.5,0,50,22.4,50,50S77.6,99.9,50,99.9z M1.6,50.7c0.4,26.3,22,47.6,48.4,47.6c26.4,0,48-21.3,48.4-47.6H87.6
	C87.2,71.1,70.5,87.5,50,87.5c-20.5,0-37.1-16.4-37.6-36.8C12.5,50.7,1.6,50.7,1.6,50.7z M24.9,75.7C31.4,82,40.3,86,50,86
	c9.7,0,18.5-3.9,25-10.1l-5.3-5c-5.2,4.9-12.1,7.9-19.7,7.9c-7.7,0-14.8-3.1-19.9-8.1L24.9,75.7z M22.9,50.7
	c0.4,14.4,12,26,26.4,26.4V63.3c-6.8-0.4-12.2-5.8-12.6-12.6H22.9z M50.8,63.3v13.8c14.4-0.4,26-12,26.4-26.4H63.4
	C63,57.5,57.6,62.9,50.8,63.3z M70.9,69.7l5.3,5c6.1-6.4,9.9-15.1,9.9-24.7c0,0,0,0,0-0.1s0,0,0-0.1c0-9.8-4-18.8-10.4-25.3
	l-5.1,5.2c5.1,5.2,8.2,12.3,8.2,20.1C78.8,57.6,75.8,64.5,70.9,69.7z M24.7,24.4C18.1,30.9,14,40,14,50c0,9.5,3.7,18.2,9.7,24.6
	l5.2-5.1c-4.8-5.1-7.7-12-7.7-19.5c0-7.8,3.1-14.9,8.2-20L24.7,24.4z M50,38.1c-6.5,0-11.8,5.3-11.8,11.8c0,6.5,5.3,11.8,11.8,11.8
	c6.5,0,11.8-5.3,11.8-11.8C61.9,43.4,56.6,38.1,50,38.1z M87.6,49.2h10.8C98,22.9,76.5,1.6,50,1.6c-26.4,0-48,21.3-48.4,47.6h10.8
	c0.2-10.3,4.6-19.6,11.6-26.3c0-0.1,0.1-0.1,0.2-0.2c0.1,0,0.1-0.1,0.2-0.1c6.7-6.3,15.8-10.2,25.7-10.2c10.1,0,19.2,4,26,10.5
	c0.1,0,0.1,0.1,0.1,0.1c0,0,0.1,0.1,0.1,0.1C83.1,29.8,87.4,39,87.6,49.2z M63.4,49.2h13.8c-0.4-14.4-12-26-26.4-26.4v13.8
	C57.6,37,63,42.4,63.4,49.2z M22.9,49.2h13.8c0.4-6.8,5.8-12.2,12.6-12.6V22.8C34.9,23.2,23.3,34.8,22.9,49.2z M25.8,23.3l4.8,5.5
	c5.1-4.7,11.9-7.6,19.4-7.6c7.4,0,14.2,2.8,19.3,7.5l5.1-5.2c-6.4-6-15-9.6-24.5-9.6C40.7,14,32.2,17.5,25.8,23.3z"/>
</svg>
