<?xml version="1.0" encoding="utf-8"?>
<!-- Generator: Adobe Illustrator 21.0.0, SVG Export Plug-In . SVG Version: 6.00 Build 0)  -->
<svg version="1.1"
	 id="Слой_1" xmlns:cc="http://creativecommons.org/ns#" xmlns:dc="http://purl.org/dc/elements/1.1/" xmlns:inkscape="http://www.inkscape.org/namespaces/inkscape" xmlns:rdf="http://www.w3.org/1999/02/22-rdf-syntax-ns#" xmlns:sodipodi="http://sodipodi.sourceforge.net/DTD/sodipodi-0.dtd" xmlns:svg="http://www.w3.org/2000/svg"
	 xmlns="http://www.w3.org/2000/svg" xmlns:xlink="http://www.w3.org/1999/xlink" x="0px" y="0px" viewBox="0 0 66 85"
	 style="enable-background:new 0 0 66 85;" xml:space="preserve">
<style type="text/css">
	.st0{fill:#FFFFFF;}
</style>
<g transform="translate(0,-952.36218)">
	<path class="st0" d="M50.2,952.4c-0.1,0-0.2,0-0.3,0c-0.5,0.1-1,0.5-1.1,1c-1,2.9-2.9,4-5.9,4.5s-7.2,0-11.5-0.6s-8.9-1.3-13.2-1.2
		s-8.3,1.2-11,4.3c-0.6,0.6-0.5,1.6,0.1,2.1s1.6,0.5,2.1-0.1c2-2.3,5.1-3.2,8.9-3.3s8.3,0.5,12.7,1.1s8.7,1.1,12.4,0.6
		s7-2.5,8.3-6.5c0.3-0.8-0.1-1.6-0.9-1.9C50.5,952.4,50.3,952.4,50.2,952.4L50.2,952.4z M50,962.9c-0.6,0.1-1.1,0.5-1.3,1
		c-1,2.9-2.9,4-5.9,4.5s-7.2,0-11.5-0.6s-8.9-1.3-13.1-1.1s-8.3,1.2-11.1,4.3c-0.6,0.6-0.6,1.5,0,2.1c0.6,0.6,1.5,0.6,2.1,0
		c0.1-0.1,0.1-0.1,0.2-0.2c2.1-2.3,5.1-3.2,8.9-3.3s8.2,0.5,12.6,1.1s8.6,1.1,12.3,0.6s7-2.5,8.3-6.5c0.3-0.8-0.1-1.6-0.9-1.9
		C50.5,962.9,50.2,962.8,50,962.9z M1.4,977.2c-0.8,0.1-1.3,0.7-1.3,1.5v9.1c-0.1,0.3-0.1,0.6,0,0.9v8.7c-0.1,0.3-0.1,0.6,0,0.9
		L0,1035.9c0,0.8,0.7,1.5,1.5,1.5l62.6-0.1c0.2,0,0.4,0,0.6,0c0.2,0,0.4-0.1,0.6-0.2c0.5-0.4,0.8-1.1,0.6-1.7V993
		c0-0.8-0.7-1.5-1.5-1.5c-0.3,0-0.5,0.1-0.7,0.2l-22.5,13V993c0-0.8-0.7-1.5-1.5-1.5c-0.3,0-0.5,0.1-0.7,0.2l-22.5,13V998
		c0-0.2,0-0.4,0-0.6v-8.9c0-0.2,0-0.4,0-0.6v-9.2c0-0.8-0.7-1.5-1.5-1.5H1.6C1.5,977.2,1.5,977.2,1.4,977.2L1.4,977.2z M3.1,980.2
		h10.3v6.5H3.1V980.2z M3.1,989.7h10.3v6.5H3.1V989.7z M38.2,995.5v11.7c0,0.8,0.7,1.5,1.5,1.5c0.3,0,0.5-0.1,0.7-0.2l22.5-13v38.8
		L3,1034.4l0.1-35.2h10.3v8c0,0.8,0.7,1.5,1.5,1.5c0.2,0,0.5-0.1,0.7-0.2L38.2,995.5L38.2,995.5z M9.2,1013v5.7h7.6v-5.7H9.2z
		 M22.5,1013v5.7h7.6v-5.7H22.5z M35.8,1013v5.7h7.6v-5.7H35.8z M49.2,1013v5.7h7.6v-5.7H49.2z M9.2,1024.4v5.7h7.6v-5.7H9.2z
		 M22.5,1024.4v5.7h7.6v-5.7H22.5z M35.8,1024.4v5.7h7.6v-5.7H35.8z M49.2,1024.4v5.7h7.6v-5.7H49.2z"/>
</g>
</svg>
